<svg width="200" height="200" viewBox="0 0 200 200" fill="none" xmlns="http://www.w3.org/2000/svg">
<g clip-path="url(#clip0_2_2)">
<path d="M116.833 185.092C142.585 185.561 160.927 190.36 166.879 192.701C164.607 156.426 136.715 102.43 82.0231 99.8452C34.8575 97.6159 42.1067 99.6506 10.7692 92.664C42.9119 191.362 84.6421 184.505 116.833 185.092Z" fill="#94DB39"/>
<path fill-rule="evenodd" clip-rule="evenodd" d="M155.649 189.485C149.304 183.718 136.54 173.896 118.142 164.369C116.285 163.407 114.377 162.454 112.437 161.486C92.4819 151.525 69.1614 139.884 63.2226 99.0497C68.3557 99.2423 74.4966 99.4894 82.0231 99.8452C129.05 102.068 156.262 142.299 164.411 176.594C163.099 181.593 161.541 186.273 159.829 190.501C159.057 190.298 158.239 190.093 157.376 189.886C156.819 189.753 156.243 189.619 155.649 189.485ZM167.929 157.238C163.9 147.126 158.405 137.102 151.431 128.018C136.06 107.998 113.08 92.072 82.4589 90.6247C74.1277 90.2309 67.5645 89.9712 62.2185 89.7739C61.2135 76.1438 61.9267 59.6762 64.9276 39.6154C73.1844 50.091 83.1026 53.9581 97.2201 59.4625C106.378 63.0333 117.304 67.2931 130.69 74.4931C163.595 92.1929 171.057 126.986 167.929 157.238Z" fill="#8DC742"/>
<path d="M116.833 185.092C142.585 185.561 160.927 190.361 166.879 192.701C164.607 156.426 136.715 102.43 82.0231 99.8452C34.8575 97.6159 42.1067 99.6506 10.7692 92.664C42.9119 191.362 84.6421 184.505 116.833 185.092Z" fill="#94DB39"/>
<path fill-rule="evenodd" clip-rule="evenodd" d="M135.062 66.3638C126.534 61.7763 118.89 58.3076 112.137 55.4857C116.693 41.3993 125.978 24.6475 142.383 4.23077C146.069 22.5117 151.482 29.4174 159.47 39.6066C164.523 46.0509 170.604 53.8086 177.93 66.5883C191.287 89.8904 187.319 111.907 176.881 129.944C173.729 105.455 161.986 80.846 135.062 66.3638Z" fill="#7FB539"/>
</g>
<defs>
<clipPath id="clip0_2_2">
<rect width="200" height="200" fill="white"/>
</clipPath>
</defs>
</svg>
