<svg width="1000" height="300" viewBox="0 0 1000 300"  fill="black" xmlns="http://www.w3.org/2000/svg">
<g clip-path="url(#clip0)">
<path d="M51.6198 36.5708H200.487L228.047 61.4618V228.953L198.71 258.29H63.2224L26.9912 226.183L27.39 61.072L51.6198 36.5708ZM58.451 52.9338L43.7368 67.8129L43.372 218.836L69.4294 241.927H191.932L211.684 222.175V68.7322L194.191 52.9338H58.451Z" />
<path d="M32.4401 214.801L95.165 192.493L100.648 207.91L37.9232 230.218L32.4401 214.801Z" />
<path d="M41.1655 58.48L89.8728 104.242L78.6686 116.167L29.9613 70.4054L41.1655 58.48Z" />
<path d="M160.017 80.5205L191.63 140.234L157.209 165.267L139.644 206.252L90.0242 210.069L73.8957 100.395L160.017 80.5205ZM94.6458 114.56L105.789 190.333L127.075 188.696L142.236 153.32L167.813 134.719L150.337 101.708L94.6458 114.56Z" />
<path d="M152.124 83.524L216.812 57.5068L222.918 72.688L158.23 98.7052L152.124 83.524Z" />
<path d="M155.341 153.346L225.484 219.616L214.247 231.511L144.104 165.24L155.341 153.346Z" />
<path d="M339.097 88.437C362.906 88.437 371.2 97.2652 371.2 116.794C371.2 136.056 361.836 144.884 339.365 144.884H307.797V88.437H339.097ZM342.842 170.031C380.563 170.031 401.162 147.024 401.162 116.527C401.162 80.6789 381.633 62.4875 341.772 62.4875H277.3V223H307.797V170.031H342.842ZM450.135 51.2516H421.243V223H450.135V51.2516ZM486.675 269.816C515.567 269.816 531.083 255.905 543.924 224.605L595.823 97.2652H565.058L551.415 143.279C546.599 158.795 540.446 178.859 534.828 197.586H530.548C525.198 179.394 518.242 158.527 513.159 142.744L498.445 97.2652H466.878L517.439 221.662C509.146 240.656 501.656 244.134 487.477 244.134C482.127 244.134 476.776 243.332 471.426 242.262L466.878 268.211C472.763 269.014 478.381 269.816 486.675 269.816ZM639.517 151.839C639.517 132.845 652.358 120.004 671.619 120.004C689.008 120.004 695.696 131.24 695.696 146.489V223H724.321V138.998C724.321 111.711 711.747 94.0549 685.53 94.0549C664.396 94.0549 648.345 107.163 641.389 130.438H638.982V97.2652H610.892V223H639.517V151.839ZM760.236 184.745C760.236 208.286 772.006 226.478 799.561 226.478C812.135 226.478 818.555 224.873 827.918 221.93L824.441 196.248C818.288 198.121 812.67 199.458 806.249 199.458C793.676 199.458 789.128 193.038 789.128 180.732V120.54H826.046V97.2652H789.128V63.2901H760.236V97.2652H742.579V120.54H760.236V184.745ZM876.994 151.839C876.994 132.845 889.835 120.004 909.364 120.004C926.218 120.004 933.173 131.24 933.173 146.489V223H961.798V138.998C961.798 111.711 949.492 94.0549 923.542 94.0549C901.606 94.0549 886.357 107.431 879.134 130.438H876.994V51.2516H848.369V223H876.994V151.839Z" />
</g>
</svg>
