<svg width="1000" height="300" viewBox="0 0 1000 300" fill="none" xmlns="http://www.w3.org/2000/svg">
<g clip-path="url(#clip0)">
<g clip-path="url(#clip1)">
<path d="M35.5634 64.4424L55.0354 44.7522H197.339L219.866 65.0969V225.564L195.321 250.108H66.3259L35.1816 222.509L35.5634 64.4424Z" stroke="white" stroke-width="16.363" stroke-miterlimit="10"/>
<path d="M97.9065 200.201L35.1816 222.51" stroke="white" stroke-width="16.363" stroke-miterlimit="10"/>
<path d="M84.2706 110.205L35.5634 64.4426" stroke="white" stroke-width="16.363" stroke-miterlimit="10"/>
<path d="M97.9066 200.201L133.36 197.474L149.723 159.294L179.722 137.476L155.177 91.1143L84.2708 107.477L97.9066 200.201Z" stroke="white" stroke-width="18.4684" stroke-miterlimit="10"/>
<path d="M219.865 65.0974L155.177 91.1146" stroke="white" stroke-width="16.363" stroke-miterlimit="10"/>
<path d="M219.865 225.563L149.723 159.293" stroke="white" stroke-width="16.363" stroke-miterlimit="10"/>
</g>
<path d="M339.097 88.437C362.906 88.437 371.199 97.2652 371.199 116.794C371.199 136.056 361.836 144.884 339.365 144.884H307.797V88.437H339.097ZM342.842 170.031C380.563 170.031 401.162 147.024 401.162 116.527C401.162 80.6789 381.633 62.4875 341.772 62.4875H277.3V223H307.797V170.031H342.842ZM450.135 51.2516H421.243V223H450.135V51.2516ZM486.674 269.816C515.567 269.816 531.083 255.905 543.924 224.605L595.823 97.2652H565.058L551.414 143.279C546.599 158.795 540.446 178.859 534.828 197.586H530.548C525.197 179.394 518.242 158.527 513.159 142.744L498.445 97.2652H466.878L517.439 221.662C509.146 240.656 501.656 244.134 487.477 244.134C482.127 244.134 476.776 243.332 471.426 242.262L466.878 268.211C472.763 269.014 478.381 269.816 486.674 269.816ZM639.517 151.839C639.517 132.845 652.358 120.004 671.619 120.004C689.008 120.004 695.696 131.24 695.696 146.489V223H724.321V138.998C724.321 111.711 711.747 94.0549 685.53 94.0549C664.396 94.0549 648.345 107.163 641.389 130.438H638.982V97.2652H610.892V223H639.517V151.839ZM760.235 184.745C760.235 208.286 772.006 226.478 799.561 226.478C812.134 226.478 818.555 224.873 827.918 221.93L824.44 196.248C818.287 198.121 812.669 199.458 806.249 199.458C793.675 199.458 789.128 193.038 789.128 180.732V120.54H826.046V97.2652H789.128V63.2901H760.235V97.2652H742.579V120.54H760.235V184.745ZM876.994 151.839C876.994 132.845 889.835 120.004 909.364 120.004C926.217 120.004 933.173 131.24 933.173 146.489V223H961.798V138.998C961.798 111.711 949.492 94.0549 923.542 94.0549C901.606 94.0549 886.357 107.431 879.134 130.438H876.994V51.2516H848.369V223H876.994V151.839Z" fill="white"/>
</g>
<defs>
<clipPath id="clip0">
<rect width="1000" height="300" fill="white"/>
</clipPath>
<clipPath id="clip1">
<rect width="201.047" height="221.719" fill="white" transform="translate(27 36.5708)"/>
</clipPath>
</defs>
</svg>
