<svg width="160" height="110" viewBox="0 0 160 110" fill="none" xmlns="http://www.w3.org/2000/svg">
<rect x="72.2137" y="1.7094" width="43.0769" height="74.5299" rx="7.17949" stroke="white" stroke-width="3.4188"/>
<rect x="71.6325" y="19.3675" width="39.265" height="33.265" transform="rotate(90 71.6325 19.3675)" stroke="white" stroke-width="2.73504"/>
<rect x="105.632" y="16.3675" width="39.265" height="33.265" transform="rotate(90 105.632 16.3675)" stroke="white" stroke-width="2.73504"/>
<circle cx="93.7521" cy="69.0598" r="2.73504" fill="white"/>
<path d="M38.5 46L54 28.5L66 44L72 38" stroke="white" stroke-width="2"/>
<path d="M72.5 44L81.5 35L99 55.5" stroke="white" stroke-width="2"/>
<circle cx="93.5" cy="28.5" r="4.5" stroke="white" stroke-width="2"/>
<path d="M11.3939 105H13.2384V100.675H17.9564V105H19.8058V94.8182H17.9564V99.1286H13.2384V94.8182H11.3939V105ZM25.0633 105.149C27.3005 105.149 28.7224 103.573 28.7224 101.212C28.7224 98.8452 27.3005 97.2642 25.0633 97.2642C22.8261 97.2642 21.4042 98.8452 21.4042 101.212C21.4042 103.573 22.8261 105.149 25.0633 105.149ZM25.0732 103.707C23.8353 103.707 23.2288 102.604 23.2288 101.207C23.2288 99.8097 23.8353 98.6911 25.0732 98.6911C26.2913 98.6911 26.8978 99.8097 26.8978 101.207C26.8978 102.604 26.2913 103.707 25.0732 103.707ZM32.0496 94.8182H30.2499V105H32.0496V94.8182ZM36.7341 105.134C38.0466 105.134 38.6382 104.354 38.9216 103.797H39.031V105H40.8009V94.8182H38.9962V98.6264H38.9216C38.6482 98.0746 38.0864 97.2642 36.7391 97.2642C34.9742 97.2642 33.5871 98.6463 33.5871 101.192C33.5871 103.707 34.9344 105.134 36.7341 105.134ZM37.2362 103.658C36.048 103.658 35.4216 102.614 35.4216 101.182C35.4216 99.7599 36.0381 98.7408 37.2362 98.7408C38.3946 98.7408 39.031 99.7003 39.031 101.182C39.031 102.663 38.3847 103.658 37.2362 103.658ZM49.5223 105.149C51.7595 105.149 53.1814 103.573 53.1814 101.212C53.1814 98.8452 51.7595 97.2642 49.5223 97.2642C47.2851 97.2642 45.8632 98.8452 45.8632 101.212C45.8632 103.573 47.2851 105.149 49.5223 105.149ZM49.5322 103.707C48.2943 103.707 47.6878 102.604 47.6878 101.207C47.6878 99.8097 48.2943 98.6911 49.5322 98.6911C50.7503 98.6911 51.3568 99.8097 51.3568 101.207C51.3568 102.604 50.7503 103.707 49.5322 103.707ZM61.2702 97.3636H59.3561L57.5961 103.036H57.5166L55.7616 97.3636H53.8426L56.5621 105H58.5507L61.2702 97.3636ZM65.6365 105.149C67.4163 105.149 68.6393 104.279 68.9575 102.952L67.2771 102.763C67.0335 103.409 66.4369 103.747 65.6613 103.747C64.498 103.747 63.7274 102.982 63.7124 101.674H69.032V101.122C69.032 98.4425 67.4213 97.2642 65.542 97.2642C63.3545 97.2642 61.9276 98.87 61.9276 101.227C61.9276 103.623 63.3346 105.149 65.6365 105.149ZM63.7174 100.461C63.7721 99.4865 64.493 98.6662 65.5669 98.6662C66.6009 98.6662 67.297 99.4219 67.3069 100.461H63.7174ZM70.5546 105H72.3543V100.511C72.3543 99.5412 73.0851 98.8551 74.0745 98.8551C74.3778 98.8551 74.7556 98.9098 74.9097 98.9595V97.304C74.7456 97.2741 74.4623 97.2543 74.2634 97.2543C73.3884 97.2543 72.6576 97.7514 72.3792 98.6364H72.2996V97.3636H70.5546V105ZM80.6966 107.864C82.0986 107.864 82.909 107.143 83.3415 105.925L86.409 97.3736L84.485 97.3636L82.7201 103.131H82.6405L80.8806 97.3636H78.9715L81.7407 105.159L81.5866 105.572C81.2535 106.442 80.7265 106.501 79.941 106.273L79.5233 107.675C79.767 107.774 80.2045 107.864 80.6966 107.864ZM90.7293 105.149C92.9665 105.149 94.3884 103.573 94.3884 101.212C94.3884 98.8452 92.9665 97.2642 90.7293 97.2642C88.4921 97.2642 87.0702 98.8452 87.0702 101.212C87.0702 103.573 88.4921 105.149 90.7293 105.149ZM90.7393 103.707C89.5013 103.707 88.8948 102.604 88.8948 101.207C88.8948 99.8097 89.5013 98.6911 90.7393 98.6911C91.9573 98.6911 92.5638 99.8097 92.5638 101.207C92.5638 102.604 91.9573 103.707 90.7393 103.707ZM100.783 101.788C100.783 102.952 99.9529 103.528 99.1574 103.528C98.2923 103.528 97.7156 102.917 97.7156 101.947V97.3636H95.9159V102.226C95.9159 104.06 96.96 105.099 98.4614 105.099C99.6048 105.099 100.41 104.498 100.758 103.643H100.838V105H102.583V97.3636H100.783V101.788ZM104.434 105H106.233V100.511C106.233 99.5412 106.964 98.8551 107.953 98.8551C108.257 98.8551 108.634 98.9098 108.789 98.9595V97.304C108.625 97.2741 108.341 97.2543 108.142 97.2543C107.267 97.2543 106.536 97.7514 106.258 98.6364H106.179V97.3636H104.434V105ZM113.457 107.864H115.257V103.797H115.331C115.615 104.354 116.206 105.134 117.519 105.134C119.318 105.134 120.666 103.707 120.666 101.192C120.666 98.6463 119.279 97.2642 117.514 97.2642C116.166 97.2642 115.605 98.0746 115.331 98.6264H115.227V97.3636H113.457V107.864ZM115.222 101.182C115.222 99.7003 115.858 98.7408 117.017 98.7408C118.215 98.7408 118.831 99.7599 118.831 101.182C118.831 102.614 118.205 103.658 117.017 103.658C115.868 103.658 115.222 102.663 115.222 101.182ZM122.207 105H124.007V97.3636H122.207V105ZM123.112 96.2798C123.684 96.2798 124.151 95.8423 124.151 95.3054C124.151 94.7635 123.684 94.326 123.112 94.326C122.535 94.326 122.068 94.7635 122.068 95.3054C122.068 95.8423 122.535 96.2798 123.112 96.2798ZM129.238 105.149C131.018 105.149 132.241 104.279 132.559 102.952L130.879 102.763C130.635 103.409 130.038 103.747 129.263 103.747C128.1 103.747 127.329 102.982 127.314 101.674H132.634V101.122C132.634 98.4425 131.023 97.2642 129.144 97.2642C126.956 97.2642 125.529 98.87 125.529 101.227C125.529 103.623 126.936 105.149 129.238 105.149ZM127.319 100.461C127.374 99.4865 128.095 98.6662 129.168 98.6662C130.203 98.6662 130.899 99.4219 130.908 100.461H127.319ZM137.487 105.149C139.406 105.149 140.629 104.011 140.758 102.39H139.038C138.884 103.21 138.293 103.683 137.502 103.683C136.378 103.683 135.653 102.743 135.653 101.182C135.653 99.6406 136.393 98.7159 137.502 98.7159C138.367 98.7159 138.899 99.2727 139.038 100.009H140.758C140.634 98.353 139.342 97.2642 137.477 97.2642C135.24 97.2642 133.828 98.88 133.828 101.212C133.828 103.523 135.205 105.149 137.487 105.149ZM145.617 105.149C147.397 105.149 148.62 104.279 148.938 102.952L147.258 102.763C147.014 103.409 146.417 103.747 145.642 103.747C144.478 103.747 143.708 102.982 143.693 101.674H149.013V101.122C149.013 98.4425 147.402 97.2642 145.522 97.2642C143.335 97.2642 141.908 98.87 141.908 101.227C141.908 103.623 143.315 105.149 145.617 105.149ZM143.698 100.461C143.753 99.4865 144.473 98.6662 145.547 98.6662C146.581 98.6662 147.277 99.4219 147.287 100.461H143.698Z" fill="white"/>
</svg>
